<svg id="Group_16450" data-name="Group 16450" xmlns="http://www.w3.org/2000/svg" width="24" height="24" viewBox="0 0 24 24">
  <g id="ticket-star" transform="translate(4.001 4.999)">
    <path id="Path_58095" data-name="Path 58095" d="M19.447,8.142v4.466c0,3.282-1,4.282-4.282,4.282H9.77V14.473a.567.567,0,0,0-.56-.56V6.837a.567.567,0,0,0,.56-.56V3.86h5.394C18.446,3.86,19.447,4.86,19.447,8.142Z" transform="translate(-3.448 -3.858)" fill="#1ea5fc" opacity="0.4"/>
    <path id="Path_58096" data-name="Path 58096" d="M17.29,11.337a.493.493,0,0,0,.128-.5.472.472,0,0,0-.4-.336l-1.024-.152a.124.124,0,0,1-.088-.064l-.456-.928a.488.488,0,0,0-.44-.272.5.5,0,0,0-.448.272l-.456.928a.1.1,0,0,1-.1.064l-1.024.152a.5.5,0,0,0-.4.336.488.488,0,0,0,.128.5l.744.72a.114.114,0,0,1,.032.112l-.176,1.016a.473.473,0,0,0,.2.48.48.48,0,0,0,.288.1.474.474,0,0,0,.232-.056l.92-.48a.137.137,0,0,1,.112,0l.92.48a.5.5,0,0,0,.72-.528l-.176-1.016a.144.144,0,0,1,.032-.112Z" transform="translate(-4.116 -4.9)" fill="#1ea5fc"/>
    <path id="Path_58097" data-name="Path 58097" d="M7.772,6.837v7.075a.567.567,0,0,0-.56.56V16.89H6.284c-3.161,0-4.2-.944-4.274-3.89a.531.531,0,0,1,.16-.4.551.551,0,0,1,.4-.168,2.053,2.053,0,0,0,0-4.106.526.526,0,0,1-.4-.168.543.543,0,0,1-.16-.4c.072-2.953,1.113-3.9,4.274-3.9h.928V6.277a.562.562,0,0,0,.56.56Z" transform="translate(-2.01 -3.858)" fill="#1ea5fc"/>
  </g>
  <path id="Frame" d="M0,0H24V24H0Z" fill="none"/>
</svg>
