<svg xmlns="http://www.w3.org/2000/svg" width="24" height="24" viewBox="0 0 24 24">
  <g id="Group_16450" data-name="Group 16450" transform="translate(-210 -217)">
    <path id="Frame" d="M0,0H24V24H0Z" transform="translate(210 217)" fill="none"/>
    <g id="card-tick" transform="translate(212 218.6)">
      <path id="Path_58098" data-name="Path 58098" d="M18.048,15A3.047,3.047,0,0,0,15,18.048a2.987,2.987,0,0,0,.442,1.57,3.036,3.036,0,0,0,5.211,0,2.987,2.987,0,0,0,.442-1.57A3.047,3.047,0,0,0,18.048,15Zm1.577,2.72L18,19.221a.581.581,0,0,1-.389.152.565.565,0,0,1-.4-.168l-.754-.754a.571.571,0,1,1,.808-.808l.366.366,1.219-1.128a.571.571,0,0,1,.777.838Z" transform="translate(-3.095 -2.762)" fill="#05ce91"/>
      <path id="Path_58099" data-name="Path 58099" d="M17.238,6.554V7.667H2V6.554A3.157,3.157,0,0,1,5.162,3.4h8.914a3.157,3.157,0,0,1,3.162,3.154Z" fill="#05ce91"/>
      <path id="Path_58100" data-name="Path 58100" d="M2,9v5.684a3.151,3.151,0,0,0,3.154,3.154h4.77a.777.777,0,0,0,.785-.815,4.2,4.2,0,0,1,1.3-3.436,3.869,3.869,0,0,1,1.524-.922,4.264,4.264,0,0,1,2.69.008.762.762,0,0,0,1.013-.716V9Zm4.571,6.286H5.048a.571.571,0,1,1,0-1.143H6.571a.571.571,0,1,1,0,1.143Z" transform="translate(0 -1.333)" fill="#05ce91" opacity="0.4"/>
      <path id="Path_58101" data-name="Path 58101" d="M7.917,16.321a.576.576,0,0,1-.571.571H5.821a.571.571,0,1,1,0-1.143H7.345a.576.576,0,0,1,.572.572Z" transform="translate(-0.774 -2.94)" fill="#05ce91"/>
    </g>
  </g>
</svg>
