<svg xmlns="http://www.w3.org/2000/svg" width="24" height="24" viewBox="0 0 24 24">
  <g id="Group_16450" data-name="Group 16450" transform="translate(-210 -217)">
    <path id="Frame" d="M0,0H24V24H0Z" transform="translate(210 217)" fill="none"/>
    <g id="stickynote" transform="translate(212.5 219)">
      <path id="Path_58110" data-name="Path 58110" d="M17.7,7.4v5.96a.472.472,0,0,1-.144.344l-4.408,4.44a.5.5,0,0,1-.376.16H6.4a3.9,3.9,0,0,1-3.9-3.9v-7A3.9,3.9,0,0,1,6.4,3.5h7.4a3.9,3.9,0,0,1,3.9,3.9Z" transform="translate(0 -0.3)" fill="#ff3152" opacity="0.4"/>
      <path id="Path_58111" data-name="Path 58111" d="M8.14,5.432a.6.6,0,0,1-.6-.6V2.6a.6.6,0,1,1,1.2,0V4.824a.6.6,0,0,1-.6.608Z" transform="translate(-1.008)" fill="#ff3152"/>
      <path id="Path_58112" data-name="Path 58112" d="M15.56,5.432a.6.6,0,0,1-.6-.6V2.6a.6.6,0,1,1,1.2,0V4.824a.6.6,0,0,1-.6.608Z" transform="translate(-2.492)" fill="#ff3152"/>
      <path id="Path_58113" data-name="Path 58113" d="M13.146,12.41H7.21a.6.6,0,0,1,0-1.2h5.936a.6.6,0,1,1,0,1.2Z" transform="translate(-0.822 -1.842)" fill="#ff3152"/>
      <path id="Path_58114" data-name="Path 58114" d="M10.922,16.12H7.21a.6.6,0,1,1,0-1.2h3.712a.6.6,0,1,1,0,1.2Z" transform="translate(-0.822 -2.584)" fill="#ff3152"/>
      <path id="Path_58115" data-name="Path 58115" d="M20.138,15.692a.472.472,0,0,1-.144.344l-4.408,4.44a.5.5,0,0,1-.376.16.517.517,0,0,1-.52-.512v-2.8a2.183,2.183,0,0,1,2.21-2.136c.76-.008,1.816-.008,2.72-.008a.512.512,0,0,1,.52.512Z" transform="translate(-2.438 -2.636)" fill="#ff3152"/>
    </g>
  </g>
</svg>
