<svg id="_24x24-cart" data-name="24x24-cart" xmlns="http://www.w3.org/2000/svg" width="24" height="24" viewBox="0 0 24 24">
  <path id="Path_8812" data-name="Path 8812" d="M0,0H24V24H0Z" fill="none"/>
  <path id="Path_8813" data-name="Path 8813" d="M4,6.414.757,3.172,2.172,1.757,5.414,5H20.656a1,1,0,0,1,.958,1.287l-2.4,8a1,1,0,0,1-.958.713H6v2H17v2H5a1,1,0,0,1-1-1ZM6,7v6H17.512l1.8-6ZM5.5,23A1.5,1.5,0,1,1,7,21.5,1.5,1.5,0,0,1,5.5,23Zm12,0A1.5,1.5,0,1,1,19,21.5,1.5,1.5,0,0,1,17.5,23Z" fill="#fff"/>
</svg>
