<svg xmlns="http://www.w3.org/2000/svg" id="_24x24-CalendarRange" data-name="24x24-CalendarRange" width="24" height="24" viewBox="0 0 24 24">
  <path id="calendar-range" d="M8.25,10.75c.5,0,.833.4.833,1s-.333,1-.833,1H7.417c-.5,0-.833-.4-.833-1s.333-1,.833-1Zm4.167,0c.5,0,.833.4.833,1s-.333,1-.833,1h-.833c-.5,0-.833-.4-.833-1s.333-1,.833-1Zm4.167,0c.5,0,.833.4.833,1s-.333,1-.833,1H15.75c-.5,0-.833-.4-.833-1s.333-1,.833-1h.833ZM19.917,4.5a1.672,1.672,0,0,1,1.667,1.667V20.333A1.672,1.672,0,0,1,19.917,22H4.083a1.672,1.672,0,0,1-1.667-1.667V6.167A1.672,1.672,0,0,1,4.083,4.5h1.25c.25,0,.417.167.333.417V6.833A.667.667,0,1,0,7,6.833v-4A.787.787,0,0,1,7.833,2a.787.787,0,0,1,.833.833v1.5a.179.179,0,0,0,.167.167h5.25c.25,0,.417.167.333.417V6.833a.667.667,0,1,0,1.333,0v-4a.833.833,0,0,1,1.667,0v1.5a.179.179,0,0,0,.167.167h2.333ZM19.5,20.333a.394.394,0,0,0,.417-.417v-10A.394.394,0,0,0,19.5,9.5H4.5a.394.394,0,0,0-.417.417v10a.394.394,0,0,0,.417.417Z" transform="translate(-0.017)" fill="#21262c"/>
</svg>